<svg width="501" height="345" viewBox="0 0 501 345" fill="none" xmlns="http://www.w3.org/2000/svg">
<g filter="url(#filter0_d_16_1172)">
<path d="M55 62.0625V144H46.9375V62.0625H25.5625V54.375H76.375V62.0625H55ZM124.312 126.438C124.312 129.021 123.812 131.458 122.812 133.75C121.854 136.042 120.521 138.042 118.812 139.75C117.104 141.458 115.104 142.812 112.812 143.812C110.521 144.771 108.083 145.25 105.5 145.25H100.375C97.7917 145.25 95.3542 144.771 93.0625 143.812C90.7708 142.812 88.7708 141.458 87.0625 139.75C85.3542 138.042 84 136.042 83 133.75C82.0417 131.458 81.5625 129.021 81.5625 126.438V97.5625C81.5625 94.9792 82.0417 92.5417 83 90.25C84 87.9583 85.3542 85.9583 87.0625 84.25C88.7708 82.5417 90.7708 81.2083 93.0625 80.25C95.3542 79.25 97.7917 78.75 100.375 78.75H105.5C108.083 78.75 110.521 79.25 112.812 80.25C115.104 81.2083 117.104 82.5417 118.812 84.25C120.521 85.9583 121.854 87.9583 122.812 90.25C123.812 92.5417 124.312 94.9792 124.312 97.5625V112.625H89.25V126.875C89.25 128.417 89.5417 129.875 90.125 131.25C90.7083 132.583 91.5 133.75 92.5 134.75C93.5 135.75 94.6667 136.542 96 137.125C97.375 137.708 98.8333 138 100.375 138H105.5C107.042 138 108.479 137.708 109.812 137.125C111.188 136.542 112.375 135.75 113.375 134.75C114.375 133.75 115.167 132.583 115.75 131.25C116.333 129.875 116.625 128.417 116.625 126.875V122.625L124.312 123.875V126.438ZM116.625 97.125C116.625 95.5833 116.333 94.1458 115.75 92.8125C115.167 91.4375 114.375 90.25 113.375 89.25C112.375 88.25 111.188 87.4583 109.812 86.875C108.479 86.2917 107.042 86 105.5 86H100.375C98.8333 86 97.375 86.2917 96 86.875C94.6667 87.4583 93.5 88.25 92.5 89.25C91.5 90.25 90.7083 91.4375 90.125 92.8125C89.5417 94.1458 89.25 95.5833 89.25 97.125V106.625H116.625V97.125ZM142.25 144V54.375H149.938V144H142.25ZM210.688 126.438C210.688 129.021 210.188 131.458 209.188 133.75C208.229 136.042 206.896 138.042 205.188 139.75C203.479 141.458 201.479 142.812 199.188 143.812C196.896 144.771 194.458 145.25 191.875 145.25H186.75C184.167 145.25 181.729 144.771 179.438 143.812C177.146 142.812 175.146 141.458 173.438 139.75C171.729 138.042 170.375 136.042 169.375 133.75C168.417 131.458 167.938 129.021 167.938 126.438V97.5625C167.938 94.9792 168.417 92.5417 169.375 90.25C170.375 87.9583 171.729 85.9583 173.438 84.25C175.146 82.5417 177.146 81.2083 179.438 80.25C181.729 79.25 184.167 78.75 186.75 78.75H191.875C194.458 78.75 196.896 79.25 199.188 80.25C201.479 81.2083 203.479 82.5417 205.188 84.25C206.896 85.9583 208.229 87.9583 209.188 90.25C210.188 92.5417 210.688 94.9792 210.688 97.5625V112.625H175.625V126.875C175.625 128.417 175.917 129.875 176.5 131.25C177.083 132.583 177.875 133.75 178.875 134.75C179.875 135.75 181.042 136.542 182.375 137.125C183.75 137.708 185.208 138 186.75 138H191.875C193.417 138 194.854 137.708 196.188 137.125C197.562 136.542 198.75 135.75 199.75 134.75C200.75 133.75 201.542 132.583 202.125 131.25C202.708 129.875 203 128.417 203 126.875V122.625L210.688 123.875V126.438ZM203 97.125C203 95.5833 202.708 94.1458 202.125 92.8125C201.542 91.4375 200.75 90.25 199.75 89.25C198.75 88.25 197.562 87.4583 196.188 86.875C194.854 86.2917 193.417 86 191.875 86H186.75C185.208 86 183.75 86.2917 182.375 86.875C181.042 87.4583 179.875 88.25 178.875 89.25C177.875 90.25 177.083 91.4375 176.5 92.8125C175.917 94.1458 175.625 95.5833 175.625 97.125V106.625H203V97.125ZM268.812 126.438C268.812 129.021 268.312 131.458 267.312 133.75C266.354 136.042 265.021 138.042 263.312 139.75C261.604 141.458 259.604 142.812 257.312 143.812C255.021 144.771 252.583 145.25 250 145.25H244.875C242.292 145.25 239.854 144.771 237.562 143.812C235.271 142.812 233.271 141.458 231.562 139.75C229.854 138.042 228.5 136.042 227.5 133.75C226.542 131.458 226.062 129.021 226.062 126.438V97.5625C226.062 94.9792 226.542 92.5417 227.5 90.25C228.5 87.9583 229.854 85.9583 231.562 84.25C233.271 82.5417 235.271 81.2083 237.562 80.25C239.854 79.25 242.292 78.75 244.875 78.75H250C252.583 78.75 255.021 79.25 257.312 80.25C259.604 81.2083 261.604 82.5417 263.312 84.25C265.021 85.9583 266.354 87.9583 267.312 90.25C268.312 92.5417 268.812 94.9792 268.812 97.5625V100.125L261.125 101.375V97.125C261.125 95.5833 260.833 94.1458 260.25 92.8125C259.667 91.4375 258.875 90.25 257.875 89.25C256.875 88.25 255.688 87.4583 254.312 86.875C252.979 86.2917 251.542 86 250 86H244.875C243.333 86 241.875 86.2917 240.5 86.875C239.167 87.4583 238 88.25 237 89.25C236 90.25 235.208 91.4375 234.625 92.8125C234.042 94.1458 233.75 95.5833 233.75 97.125V126.875C233.75 128.417 234.042 129.875 234.625 131.25C235.208 132.583 236 133.75 237 134.75C238 135.75 239.167 136.542 240.5 137.125C241.875 137.708 243.333 138 244.875 138H250C251.542 138 252.979 137.708 254.312 137.125C255.688 136.542 256.875 135.75 257.875 134.75C258.875 133.75 259.667 132.583 260.25 131.25C260.833 129.875 261.125 128.417 261.125 126.875V122.625L268.812 123.875V126.438ZM409.875 144V97.125C409.875 95.5833 409.583 94.1458 409 92.8125C408.417 91.4375 407.625 90.25 406.625 89.25C405.625 88.25 404.438 87.4583 403.062 86.875C401.729 86.2917 400.292 86 398.75 86H394.938C393.396 86 391.938 86.2917 390.562 86.875C389.229 87.4583 388.042 88.25 387 89.25C386 90.25 385.208 91.4375 384.625 92.8125C384.042 94.1458 383.75 95.5833 383.75 97.125V144H376.125V97.125C376.125 95.5833 375.833 94.1458 375.25 92.8125C374.667 91.4375 373.854 90.25 372.812 89.25C371.812 88.25 370.625 87.4583 369.25 86.875C367.917 86.2917 366.479 86 364.938 86H361.125C359.583 86 358.125 86.2917 356.75 86.875C355.417 87.4583 354.25 88.25 353.25 89.25C352.25 90.25 351.458 91.4375 350.875 92.8125C350.292 94.1458 350 95.5833 350 97.125V144H342.312V80H344.875L349.062 86.5C350.812 84.125 353 82.25 355.625 80.875C358.292 79.4583 361.188 78.75 364.312 78.75H364.938C368.562 78.75 371.833 79.6458 374.75 81.4375C377.667 83.2292 379.917 85.6042 381.5 88.5625C382.292 87.1042 383.271 85.7708 384.438 84.5625C385.604 83.3542 386.896 82.3333 388.312 81.5C389.729 80.625 391.271 79.9583 392.938 79.5C394.604 79 396.333 78.75 398.125 78.75H398.75C401.333 78.75 403.771 79.25 406.062 80.25C408.354 81.2083 410.354 82.5417 412.062 84.25C413.771 85.9583 415.104 87.9583 416.062 90.25C417.062 92.5417 417.562 94.9792 417.562 97.5625V144H409.875ZM239.75 307V217.375H290.188V225.062H247.812V258.375H282.125V266.062H247.812V299.312H290.188V307H239.75ZM414.125 286.25C414.125 289.292 413.5 292.146 412.25 294.812C411.042 297.479 409.396 299.812 407.312 301.812C405.271 303.812 402.875 305.396 400.125 306.562C397.417 307.688 394.542 308.25 391.5 308.25H385.062C382.021 308.25 379.125 307.688 376.375 306.562C373.667 305.396 371.271 303.812 369.188 301.812C367.146 299.812 365.5 297.479 364.25 294.812C363.042 292.146 362.438 289.292 362.438 286.25V282.688L370.5 281.375V286.25C370.5 288.25 370.896 290.125 371.688 291.875C372.521 293.583 373.625 295.104 375 296.438C376.375 297.729 377.958 298.75 379.75 299.5C381.583 300.25 383.5 300.625 385.5 300.625H391.125C393.125 300.625 395.021 300.25 396.812 299.5C398.604 298.75 400.188 297.729 401.562 296.438C402.938 295.104 404.021 293.583 404.812 291.875C405.646 290.125 406.062 288.25 406.062 286.25V283.562C406.062 280.479 405.458 277.917 404.25 275.875C403.042 273.833 401.438 272.104 399.438 270.688C397.438 269.229 395.167 268 392.625 267C390.125 266 387.542 265 384.875 264C382.208 263 379.604 261.896 377.062 260.688C374.562 259.479 372.312 257.979 370.312 256.188C368.312 254.354 366.708 252.125 365.5 249.5C364.292 246.875 363.688 243.646 363.688 239.812V238.125C363.688 235.083 364.25 232.229 365.375 229.562C366.542 226.896 368.125 224.562 370.125 222.562C372.125 220.562 374.458 219 377.125 217.875C379.833 216.708 382.708 216.125 385.75 216.125H391.5C394.542 216.125 397.396 216.708 400.062 217.875C402.729 219 405.062 220.562 407.062 222.562C409.062 224.562 410.625 226.896 411.75 229.562C412.917 232.229 413.5 235.083 413.5 238.125V240.438L405.438 241.75V238.125C405.438 236.125 405.062 234.271 404.312 232.562C403.562 230.812 402.542 229.292 401.25 228C399.958 226.708 398.438 225.688 396.688 224.938C394.979 224.188 393.125 223.812 391.125 223.812H386.125C384.125 223.812 382.25 224.188 380.5 224.938C378.792 225.688 377.271 226.708 375.938 228C374.646 229.292 373.625 230.812 372.875 232.562C372.125 234.271 371.75 236.125 371.75 238.125V239.812C371.75 242.688 372.354 245.104 373.562 247.062C374.771 249.021 376.375 250.708 378.375 252.125C380.375 253.5 382.625 254.708 385.125 255.75C387.667 256.75 390.271 257.792 392.938 258.875C395.604 259.917 398.188 261.083 400.688 262.375C403.229 263.625 405.5 265.188 407.5 267.062C409.5 268.896 411.104 271.146 412.312 273.812C413.521 276.479 414.125 279.729 414.125 283.562V286.25ZM452.438 264.125V307H444.375V264.25L421.188 217.375H429.875L448.312 254.625L466.75 217.375H475.438L452.438 264.125Z" fill="white"/>
<path d="M326.938 126.438C326.938 129.021 326.438 131.458 325.438 133.75C324.479 136.042 323.146 138.042 321.438 139.75C319.729 141.458 317.729 142.812 315.438 143.812C313.146 144.771 310.708 145.25 308.125 145.25H303C300.417 145.25 297.979 144.771 295.688 143.812C293.396 142.812 291.396 141.458 289.688 139.75C287.979 138.042 286.625 136.042 285.625 133.75C284.667 131.458 284.188 129.021 284.188 126.438V97.5625C284.188 94.9792 284.667 92.5417 285.625 90.25C286.625 87.9583 287.979 85.9583 289.688 84.25C291.396 82.5417 293.396 81.2083 295.688 80.25C297.979 79.25 300.417 78.75 303 78.75H308.125C310.708 78.75 313.146 79.25 315.438 80.25C317.729 81.2083 319.729 82.5417 321.438 84.25C323.146 85.9583 324.479 87.9583 325.438 90.25C326.438 92.5417 326.938 94.9792 326.938 97.5625V126.438ZM319.25 97.125C319.25 95.5833 318.958 94.1458 318.375 92.8125C317.792 91.4375 317 90.25 316 89.25C315 88.25 313.812 87.4583 312.438 86.875C311.104 86.2917 309.667 86 308.125 86H303C301.458 86 300 86.2917 298.625 86.875C297.292 87.4583 296.125 88.25 295.125 89.25C294.125 90.25 293.333 91.4375 292.75 92.8125C292.167 94.1458 291.875 95.5833 291.875 97.125V126.875C291.875 128.417 292.167 129.875 292.75 131.25C293.333 132.583 294.125 133.75 295.125 134.75C296.125 135.75 297.292 136.542 298.625 137.125C300 137.708 301.458 138 303 138H308.125C309.667 138 311.104 137.708 312.438 137.125C313.812 136.542 315 135.75 316 134.75C317 133.75 317.792 132.583 318.375 131.25C318.958 129.875 319.25 128.417 319.25 126.875V97.125ZM339.25 286.125H310.875L305 307H296.625L322.875 217.375H327.125L353.5 307H345.188L339.25 286.125ZM313.062 278.438H337.125L325.312 237.125L325.062 233.812L324.812 237.125L313.062 278.438Z" fill="#0029FF"/>
<path d="M342.243 54.6828C339.17 44.5568 333.693 35.8836 326.565 29.8553C319.437 23.8269 311.008 20.7394 302.437 21.0172C293.866 21.295 285.573 24.9244 278.699 31.4065C271.824 37.8886 266.706 46.9052 264.047 57.2169L268.888 59.215C271.221 50.1687 275.711 42.2585 281.742 36.5718C287.773 30.8851 295.048 27.7011 302.568 27.4574C310.087 27.2137 317.481 29.9224 323.735 35.2109C329.988 40.4995 334.793 48.1085 337.489 56.9918L342.243 54.6828Z" fill="#0029FF"/>
<path d="M328.66 62.1293C326.089 55.6424 322.513 50.2978 318.27 46.6007C314.026 42.9036 309.256 40.976 304.41 41.0002C299.563 41.0244 294.801 42.9996 290.573 46.739C286.344 50.4785 282.79 55.8587 280.245 62.3711L283.221 65.2706C285.454 59.5573 288.572 54.8374 292.282 51.5568C295.991 48.2762 300.169 46.5434 304.421 46.5222C308.673 46.501 312.857 48.192 316.58 51.4354C320.302 54.6789 323.44 59.3676 325.695 65.0585L328.66 62.1293Z" fill="#0029FF"/>
</g>
<defs>
<filter id="filter0_d_16_1172" x="0.5625" y="0" width="499.875" height="337.25" filterUnits="userSpaceOnUse" color-interpolation-filters="sRGB">
<feFlood flood-opacity="0" result="BackgroundImageFix"/>
<feColorMatrix in="SourceAlpha" type="matrix" values="0 0 0 0 0 0 0 0 0 0 0 0 0 0 0 0 0 0 127 0" result="hardAlpha"/>
<feOffset dy="4"/>
<feGaussianBlur stdDeviation="12.5"/>
<feComposite in2="hardAlpha" operator="out"/>
<feColorMatrix type="matrix" values="0 0 0 0 1 0 0 0 0 1 0 0 0 0 1 0 0 0 1 0"/>
<feBlend mode="normal" in2="BackgroundImageFix" result="effect1_dropShadow_16_1172"/>
<feBlend mode="normal" in="SourceGraphic" in2="effect1_dropShadow_16_1172" result="shape"/>
</filter>
</defs>
</svg>
